<mxfile host="app.diagrams.net" agent="Mozilla/5.0 (Windows NT 10.0; Win64; x64) AppleWebKit/537.36 (KHTML, like Gecko) Chrome/134.0.0.0 Safari/537.36" version="26.2.2">
  <diagram id="C5RBs43oDa-KdzZeNtuy" name="Page-1">
    <mxGraphModel dx="2216" dy="921" grid="1" gridSize="10" guides="1" tooltips="1" connect="1" arrows="1" fold="1" page="1" pageScale="1" pageWidth="1200" pageHeight="1600" math="0" shadow="0">
      <root>
        <mxCell id="WIyWlLk6GJQsqaUBKTNV-0" />
        <mxCell id="WIyWlLk6GJQsqaUBKTNV-1" parent="WIyWlLk6GJQsqaUBKTNV-0" />
        <mxCell id="7-r9sHtoe3iV2b30EBqN-4" style="edgeStyle=orthogonalEdgeStyle;rounded=0;orthogonalLoop=1;jettySize=auto;html=1;entryX=0.5;entryY=0;entryDx=0;entryDy=0;" parent="WIyWlLk6GJQsqaUBKTNV-1" source="hXV6cM4oUxrX_OrtFHHE-7" target="hXV6cM4oUxrX_OrtFHHE-40" edge="1">
          <mxGeometry relative="1" as="geometry" />
        </mxCell>
        <mxCell id="hXV6cM4oUxrX_OrtFHHE-7" value="&lt;div style=&quot;padding: 30px; font-size: medium; text-align: start;&quot; class=&quot;rtcContent&quot;&gt;&lt;div style=&quot;font-size: 10pt; font-family: Menlo, Monaco, Consolas, &amp;quot;Courier New&amp;quot;, monospace;&quot; class=&quot;lineNode&quot;&gt;&lt;span style=&quot;font-size: 12px; text-align: center; background-color: transparent; color: light-dark(rgb(0, 0, 0), rgb(255, 255, 255)); font-family: Helvetica;&quot;&gt;Minimum RPM=&lt;/span&gt;&lt;span style=&quot;white-space: pre;&quot;&gt;(30/(pi*r))*(sqrt((r*g)/mewMax))&lt;/span&gt;&lt;/div&gt;&lt;/div&gt;" style="rounded=0;whiteSpace=wrap;html=1;" parent="WIyWlLk6GJQsqaUBKTNV-1" vertex="1">
          <mxGeometry x="100" y="240" width="280" height="60" as="geometry" />
        </mxCell>
        <mxCell id="7-r9sHtoe3iV2b30EBqN-5" style="edgeStyle=orthogonalEdgeStyle;rounded=0;orthogonalLoop=1;jettySize=auto;html=1;entryX=0.5;entryY=0;entryDx=0;entryDy=0;" parent="WIyWlLk6GJQsqaUBKTNV-1" source="hXV6cM4oUxrX_OrtFHHE-8" target="hXV6cM4oUxrX_OrtFHHE-42" edge="1">
          <mxGeometry relative="1" as="geometry" />
        </mxCell>
        <mxCell id="hXV6cM4oUxrX_OrtFHHE-8" value="&lt;div style=&quot;padding: 30px; font-size: medium; text-align: start;&quot; class=&quot;rtcContent&quot;&gt;&lt;div style=&quot;font-size: 10pt; font-family: Menlo, Monaco, Consolas, &amp;quot;Courier New&amp;quot;, monospace;&quot; class=&quot;lineNode&quot;&gt;&lt;span style=&quot;font-size: 12px; text-align: center; background-color: transparent; color: light-dark(rgb(0, 0, 0), rgb(255, 255, 255)); font-family: Helvetica;&quot;&gt;Maximum RPM=&lt;/span&gt;&lt;span style=&quot;white-space: pre;&quot;&gt;(30/(pi*r))*sqrt(MaxG*r*g)&lt;/span&gt;&lt;/div&gt;&lt;/div&gt;" style="rounded=0;whiteSpace=wrap;html=1;" parent="WIyWlLk6GJQsqaUBKTNV-1" vertex="1">
          <mxGeometry x="414" y="240" width="286" height="60" as="geometry" />
        </mxCell>
        <mxCell id="7-r9sHtoe3iV2b30EBqN-1" value="" style="edgeStyle=orthogonalEdgeStyle;rounded=0;orthogonalLoop=1;jettySize=auto;html=1;" parent="WIyWlLk6GJQsqaUBKTNV-1" source="hXV6cM4oUxrX_OrtFHHE-29" target="7-r9sHtoe3iV2b30EBqN-0" edge="1">
          <mxGeometry relative="1" as="geometry" />
        </mxCell>
        <mxCell id="hXV6cM4oUxrX_OrtFHHE-29" value="start" style="rounded=1;whiteSpace=wrap;html=1;" parent="WIyWlLk6GJQsqaUBKTNV-1" vertex="1">
          <mxGeometry x="354" y="20" width="86" height="30" as="geometry" />
        </mxCell>
        <mxCell id="hXV6cM4oUxrX_OrtFHHE-36" value="End" style="rounded=1;whiteSpace=wrap;html=1;" parent="WIyWlLk6GJQsqaUBKTNV-1" vertex="1">
          <mxGeometry x="333.5" y="470" width="110" height="30" as="geometry" />
        </mxCell>
        <mxCell id="hXV6cM4oUxrX_OrtFHHE-44" style="edgeStyle=orthogonalEdgeStyle;rounded=0;orthogonalLoop=1;jettySize=auto;html=1;entryX=0.5;entryY=0;entryDx=0;entryDy=0;" parent="WIyWlLk6GJQsqaUBKTNV-1" source="hXV6cM4oUxrX_OrtFHHE-40" target="hXV6cM4oUxrX_OrtFHHE-36" edge="1">
          <mxGeometry relative="1" as="geometry">
            <mxPoint x="393.5" y="480" as="targetPoint" />
            <Array as="points">
              <mxPoint x="241" y="430" />
              <mxPoint x="389" y="430" />
            </Array>
          </mxGeometry>
        </mxCell>
        <mxCell id="hXV6cM4oUxrX_OrtFHHE-40" value="Display &quot;Minimum RPM: process output&quot;" style="whiteSpace=wrap;html=1;" parent="WIyWlLk6GJQsqaUBKTNV-1" vertex="1">
          <mxGeometry x="120.25" y="350" width="239.5" height="60" as="geometry" />
        </mxCell>
        <mxCell id="hXV6cM4oUxrX_OrtFHHE-43" style="edgeStyle=orthogonalEdgeStyle;rounded=0;orthogonalLoop=1;jettySize=auto;html=1;entryX=0.5;entryY=0;entryDx=0;entryDy=0;" parent="WIyWlLk6GJQsqaUBKTNV-1" source="hXV6cM4oUxrX_OrtFHHE-42" target="hXV6cM4oUxrX_OrtFHHE-36" edge="1">
          <mxGeometry relative="1" as="geometry">
            <Array as="points">
              <mxPoint x="560" y="430" />
              <mxPoint x="389" y="430" />
            </Array>
          </mxGeometry>
        </mxCell>
        <mxCell id="hXV6cM4oUxrX_OrtFHHE-42" value="Display &quot;Maximum RPM: process output&quot;" style="whiteSpace=wrap;html=1;" parent="WIyWlLk6GJQsqaUBKTNV-1" vertex="1">
          <mxGeometry x="440" y="350" width="233" height="60" as="geometry" />
        </mxCell>
        <mxCell id="7-r9sHtoe3iV2b30EBqN-2" style="edgeStyle=orthogonalEdgeStyle;rounded=0;orthogonalLoop=1;jettySize=auto;html=1;entryX=0.5;entryY=0;entryDx=0;entryDy=0;" parent="WIyWlLk6GJQsqaUBKTNV-1" source="7-r9sHtoe3iV2b30EBqN-0" target="hXV6cM4oUxrX_OrtFHHE-7" edge="1">
          <mxGeometry relative="1" as="geometry" />
        </mxCell>
        <mxCell id="7-r9sHtoe3iV2b30EBqN-3" style="edgeStyle=orthogonalEdgeStyle;rounded=0;orthogonalLoop=1;jettySize=auto;html=1;entryX=0.5;entryY=0;entryDx=0;entryDy=0;" parent="WIyWlLk6GJQsqaUBKTNV-1" source="7-r9sHtoe3iV2b30EBqN-0" target="hXV6cM4oUxrX_OrtFHHE-8" edge="1">
          <mxGeometry relative="1" as="geometry" />
        </mxCell>
        <mxCell id="7-r9sHtoe3iV2b30EBqN-0" value="radius = 5m&lt;div&gt;g = 9.8 ms^2&lt;/div&gt;&lt;div&gt;Max G-force = 3.5G&lt;/div&gt;&lt;div&gt;MewMax = 0.4&lt;/div&gt;&lt;div&gt;MewMin = 0.25&lt;/div&gt;" style="shape=parallelogram;perimeter=parallelogramPerimeter;whiteSpace=wrap;html=1;fixedSize=1;" parent="WIyWlLk6GJQsqaUBKTNV-1" vertex="1">
          <mxGeometry x="300.5" y="90" width="193" height="100" as="geometry" />
        </mxCell>
        <mxCell id="3qJD3kImKflB5u9U5FBh-38" style="edgeStyle=orthogonalEdgeStyle;rounded=0;orthogonalLoop=1;jettySize=auto;html=1;entryX=0.5;entryY=0;entryDx=0;entryDy=0;" edge="1" parent="WIyWlLk6GJQsqaUBKTNV-1" source="3qJD3kImKflB5u9U5FBh-0" target="3qJD3kImKflB5u9U5FBh-3">
          <mxGeometry relative="1" as="geometry" />
        </mxCell>
        <mxCell id="3qJD3kImKflB5u9U5FBh-0" value="start" style="rounded=1;whiteSpace=wrap;html=1;" vertex="1" parent="WIyWlLk6GJQsqaUBKTNV-1">
          <mxGeometry x="347.25" y="510" width="86" height="30" as="geometry" />
        </mxCell>
        <mxCell id="3qJD3kImKflB5u9U5FBh-14" style="edgeStyle=orthogonalEdgeStyle;rounded=0;orthogonalLoop=1;jettySize=auto;html=1;exitX=0.5;exitY=1;exitDx=0;exitDy=0;entryX=0.5;entryY=0;entryDx=0;entryDy=0;" edge="1" parent="WIyWlLk6GJQsqaUBKTNV-1" target="3qJD3kImKflB5u9U5FBh-6">
          <mxGeometry relative="1" as="geometry">
            <mxPoint x="388.1" y="640" as="sourcePoint" />
          </mxGeometry>
        </mxCell>
        <mxCell id="3qJD3kImKflB5u9U5FBh-3" value="&lt;span style=&quot;white-space: pre; font-family: Menlo, Monaco, Consolas, &amp;quot;Courier New&amp;quot;, monospace; font-size: 10pt; text-align: start; background-color: transparent;&quot;&gt;&lt;font&gt;xycoords_1.xlsx&lt;/font&gt;&lt;/span&gt;&lt;div&gt;&lt;span style=&quot;white-space: pre; font-family: Menlo, Monaco, Consolas, &amp;quot;Courier New&amp;quot;, monospace; font-size: 10pt; text-align: start; background-color: transparent;&quot;&gt;&lt;span style=&quot;background-color: transparent; font-size: 10pt;&quot;&gt;&lt;font&gt;xycoords_2.xlsx&lt;/font&gt;&lt;/span&gt;&lt;/span&gt;&lt;/div&gt;&lt;div&gt;&lt;span style=&quot;white-space: pre; font-family: Menlo, Monaco, Consolas, &amp;quot;Courier New&amp;quot;, monospace; font-size: 10pt; text-align: start; background-color: transparent;&quot;&gt;&lt;span style=&quot;background-color: transparent; font-size: 10pt;&quot;&gt;&lt;font&gt;&lt;span style=&quot;background-color: transparent; font-size: 10pt;&quot;&gt;xycoords_3.xlsx &lt;/span&gt;&lt;/font&gt;&lt;/span&gt;&lt;/span&gt;&lt;/div&gt;&lt;div style=&quot;text-align: start;&quot;&gt;&lt;font face=&quot;Menlo, Monaco, Consolas, Courier New, monospace&quot;&gt;&lt;span style=&quot;font-size: 13.3333px; white-space: pre;&quot;&gt;Max G-force=3.5 &lt;/span&gt;&lt;/font&gt;&lt;/div&gt;&lt;div style=&quot;text-align: start;&quot;&gt;&lt;font face=&quot;Menlo, Monaco, Consolas, Courier New, monospace&quot;&gt;&lt;span style=&quot;font-size: 13.3333px; white-space: pre;&quot;&gt;Min RPM = &lt;/span&gt;&lt;/font&gt;&lt;span style=&quot;white-space: pre; font-family: Menlo, Monaco, Consolas, &amp;quot;Courier New&amp;quot;, monospace; font-size: 10pt; background-color: transparent; color: light-dark(rgb(0, 0, 0), rgb(255, 255, 255));&quot;&gt;21.1383&lt;/span&gt;&lt;/div&gt;" style="shape=parallelogram;perimeter=parallelogramPerimeter;whiteSpace=wrap;html=1;fixedSize=1;" vertex="1" parent="WIyWlLk6GJQsqaUBKTNV-1">
          <mxGeometry x="290.5" y="560" width="199.5" height="80" as="geometry" />
        </mxCell>
        <mxCell id="3qJD3kImKflB5u9U5FBh-15" style="edgeStyle=orthogonalEdgeStyle;rounded=0;orthogonalLoop=1;jettySize=auto;html=1;exitX=0.5;exitY=1;exitDx=0;exitDy=0;entryX=0.5;entryY=0;entryDx=0;entryDy=0;" edge="1" parent="WIyWlLk6GJQsqaUBKTNV-1" source="3qJD3kImKflB5u9U5FBh-6" target="3qJD3kImKflB5u9U5FBh-7">
          <mxGeometry relative="1" as="geometry" />
        </mxCell>
        <mxCell id="3qJD3kImKflB5u9U5FBh-6" value="convert .xlsx file into array" style="rounded=0;whiteSpace=wrap;html=1;" vertex="1" parent="WIyWlLk6GJQsqaUBKTNV-1">
          <mxGeometry x="297.6" y="660" width="181" height="60" as="geometry" />
        </mxCell>
        <mxCell id="3qJD3kImKflB5u9U5FBh-16" style="edgeStyle=orthogonalEdgeStyle;rounded=0;orthogonalLoop=1;jettySize=auto;html=1;exitX=0.5;exitY=1;exitDx=0;exitDy=0;entryX=0.5;entryY=0;entryDx=0;entryDy=0;" edge="1" parent="WIyWlLk6GJQsqaUBKTNV-1" source="3qJD3kImKflB5u9U5FBh-7" target="3qJD3kImKflB5u9U5FBh-9">
          <mxGeometry relative="1" as="geometry" />
        </mxCell>
        <mxCell id="3qJD3kImKflB5u9U5FBh-7" value="find first value in x column&amp;nbsp;" style="whiteSpace=wrap;html=1;rounded=0;" vertex="1" parent="WIyWlLk6GJQsqaUBKTNV-1">
          <mxGeometry x="328.1" y="740" width="120" height="60" as="geometry" />
        </mxCell>
        <mxCell id="3qJD3kImKflB5u9U5FBh-17" style="edgeStyle=orthogonalEdgeStyle;rounded=0;orthogonalLoop=1;jettySize=auto;html=1;exitX=0.5;exitY=1;exitDx=0;exitDy=0;entryX=0.5;entryY=0;entryDx=0;entryDy=0;" edge="1" parent="WIyWlLk6GJQsqaUBKTNV-1" source="3qJD3kImKflB5u9U5FBh-9" target="3qJD3kImKflB5u9U5FBh-11">
          <mxGeometry relative="1" as="geometry" />
        </mxCell>
        <mxCell id="3qJD3kImKflB5u9U5FBh-9" value="find next row where that x value appears" style="whiteSpace=wrap;html=1;rounded=0;" vertex="1" parent="WIyWlLk6GJQsqaUBKTNV-1">
          <mxGeometry x="312.35" y="820" width="151.5" height="60" as="geometry" />
        </mxCell>
        <mxCell id="3qJD3kImKflB5u9U5FBh-19" value="" style="edgeStyle=orthogonalEdgeStyle;rounded=0;orthogonalLoop=1;jettySize=auto;html=1;" edge="1" parent="WIyWlLk6GJQsqaUBKTNV-1" source="3qJD3kImKflB5u9U5FBh-11" target="3qJD3kImKflB5u9U5FBh-18">
          <mxGeometry relative="1" as="geometry" />
        </mxCell>
        <mxCell id="3qJD3kImKflB5u9U5FBh-11" value="Period= value of the time column of that row" style="whiteSpace=wrap;html=1;rounded=0;" vertex="1" parent="WIyWlLk6GJQsqaUBKTNV-1">
          <mxGeometry x="328.1" y="900" width="120" height="60" as="geometry" />
        </mxCell>
        <mxCell id="3qJD3kImKflB5u9U5FBh-21" value="" style="edgeStyle=orthogonalEdgeStyle;rounded=0;orthogonalLoop=1;jettySize=auto;html=1;" edge="1" parent="WIyWlLk6GJQsqaUBKTNV-1" source="3qJD3kImKflB5u9U5FBh-18" target="3qJD3kImKflB5u9U5FBh-20">
          <mxGeometry relative="1" as="geometry" />
        </mxCell>
        <mxCell id="3qJD3kImKflB5u9U5FBh-18" value="RPM= 60 / period" style="whiteSpace=wrap;html=1;rounded=0;" vertex="1" parent="WIyWlLk6GJQsqaUBKTNV-1">
          <mxGeometry x="328.1" y="980" width="121.5" height="50" as="geometry" />
        </mxCell>
        <mxCell id="3qJD3kImKflB5u9U5FBh-23" value="" style="edgeStyle=orthogonalEdgeStyle;rounded=0;orthogonalLoop=1;jettySize=auto;html=1;" edge="1" parent="WIyWlLk6GJQsqaUBKTNV-1" source="3qJD3kImKflB5u9U5FBh-20">
          <mxGeometry relative="1" as="geometry">
            <mxPoint x="388.0999999999999" y="1140" as="targetPoint" />
          </mxGeometry>
        </mxCell>
        <mxCell id="3qJD3kImKflB5u9U5FBh-20" value="&lt;div style=&quot;padding: 30px; font-size: medium; text-align: start;&quot; class=&quot;rtcContent&quot;&gt;&lt;div style=&quot;font-size: 10pt; font-family: Menlo, Monaco, Consolas, &amp;quot;Courier New&amp;quot;, monospace;&quot; class=&quot;lineNode&quot;&gt;&lt;span style=&quot;white-space: pre;&quot;&gt;G-force&lt;/span&gt;&lt;span style=&quot;white-space: pre; font-size: 10pt; background-color: transparent; color: light-dark(rgb(0, 0, 0), rgb(255, 255, 255));&quot;&gt;=&lt;/span&gt;&lt;/div&gt;&lt;div style=&quot;font-size: 10pt; font-family: Menlo, Monaco, Consolas, &amp;quot;Courier New&amp;quot;, monospace;&quot; class=&quot;lineNode&quot;&gt;&lt;span style=&quot;white-space: pre; font-size: 10pt; background-color: transparent; color: light-dark(rgb(0, 0, 0), rgb(255, 255, 255));&quot;&gt;((RPM1*pi*r)/30)^2/(r*g)&lt;/span&gt;&lt;/div&gt;&lt;/div&gt;" style="whiteSpace=wrap;html=1;rounded=0;" vertex="1" parent="WIyWlLk6GJQsqaUBKTNV-1">
          <mxGeometry x="298.29" y="1050" width="181.12" height="60" as="geometry" />
        </mxCell>
        <mxCell id="3qJD3kImKflB5u9U5FBh-30" style="edgeStyle=orthogonalEdgeStyle;rounded=0;orthogonalLoop=1;jettySize=auto;html=1;entryX=1;entryY=0.5;entryDx=0;entryDy=0;" edge="1" parent="WIyWlLk6GJQsqaUBKTNV-1" source="3qJD3kImKflB5u9U5FBh-24" target="3qJD3kImKflB5u9U5FBh-6">
          <mxGeometry relative="1" as="geometry">
            <Array as="points">
              <mxPoint x="500" y="1330" />
              <mxPoint x="500" y="690" />
            </Array>
          </mxGeometry>
        </mxCell>
        <mxCell id="3qJD3kImKflB5u9U5FBh-31" value="No" style="edgeLabel;html=1;align=center;verticalAlign=middle;resizable=0;points=[];" vertex="1" connectable="0" parent="3qJD3kImKflB5u9U5FBh-30">
          <mxGeometry x="-0.8902" y="1" relative="1" as="geometry">
            <mxPoint y="1" as="offset" />
          </mxGeometry>
        </mxCell>
        <mxCell id="3qJD3kImKflB5u9U5FBh-35" value="" style="edgeStyle=orthogonalEdgeStyle;rounded=0;orthogonalLoop=1;jettySize=auto;html=1;" edge="1" parent="WIyWlLk6GJQsqaUBKTNV-1" source="3qJD3kImKflB5u9U5FBh-24" target="3qJD3kImKflB5u9U5FBh-34">
          <mxGeometry relative="1" as="geometry" />
        </mxCell>
        <mxCell id="3qJD3kImKflB5u9U5FBh-36" value="Yes" style="edgeLabel;html=1;align=center;verticalAlign=middle;resizable=0;points=[];" vertex="1" connectable="0" parent="3qJD3kImKflB5u9U5FBh-35">
          <mxGeometry x="-0.05" relative="1" as="geometry">
            <mxPoint as="offset" />
          </mxGeometry>
        </mxCell>
        <mxCell id="3qJD3kImKflB5u9U5FBh-24" value="Are all files proccesed" style="rhombus;whiteSpace=wrap;html=1;" vertex="1" parent="WIyWlLk6GJQsqaUBKTNV-1">
          <mxGeometry x="338.1" y="1290" width="100" height="100" as="geometry" />
        </mxCell>
        <mxCell id="3qJD3kImKflB5u9U5FBh-34" value="End" style="rounded=1;whiteSpace=wrap;html=1;" vertex="1" parent="WIyWlLk6GJQsqaUBKTNV-1">
          <mxGeometry x="333.1" y="1463.39" width="110" height="30" as="geometry" />
        </mxCell>
        <mxCell id="3qJD3kImKflB5u9U5FBh-41" style="edgeStyle=orthogonalEdgeStyle;rounded=0;orthogonalLoop=1;jettySize=auto;html=1;entryX=0.5;entryY=0;entryDx=0;entryDy=0;" edge="1" parent="WIyWlLk6GJQsqaUBKTNV-1" source="3qJD3kImKflB5u9U5FBh-39" target="3qJD3kImKflB5u9U5FBh-24">
          <mxGeometry relative="1" as="geometry" />
        </mxCell>
        <mxCell id="3qJD3kImKflB5u9U5FBh-42" value="Yes" style="edgeLabel;html=1;align=center;verticalAlign=middle;resizable=0;points=[];" vertex="1" connectable="0" parent="3qJD3kImKflB5u9U5FBh-41">
          <mxGeometry x="-0.0407" y="2" relative="1" as="geometry">
            <mxPoint as="offset" />
          </mxGeometry>
        </mxCell>
        <mxCell id="3qJD3kImKflB5u9U5FBh-45" style="edgeStyle=orthogonalEdgeStyle;rounded=0;orthogonalLoop=1;jettySize=auto;html=1;exitX=0.5;exitY=1;exitDx=0;exitDy=0;entryX=0.5;entryY=0;entryDx=0;entryDy=0;" edge="1" parent="WIyWlLk6GJQsqaUBKTNV-1" source="3qJD3kImKflB5u9U5FBh-39" target="3qJD3kImKflB5u9U5FBh-44">
          <mxGeometry relative="1" as="geometry">
            <Array as="points">
              <mxPoint x="258" y="1240" />
            </Array>
          </mxGeometry>
        </mxCell>
        <mxCell id="3qJD3kImKflB5u9U5FBh-47" value="Yes" style="edgeLabel;html=1;align=center;verticalAlign=middle;resizable=0;points=[];" vertex="1" connectable="0" parent="3qJD3kImKflB5u9U5FBh-45">
          <mxGeometry x="-0.1456" relative="1" as="geometry">
            <mxPoint as="offset" />
          </mxGeometry>
        </mxCell>
        <mxCell id="3qJD3kImKflB5u9U5FBh-46" style="edgeStyle=orthogonalEdgeStyle;rounded=0;orthogonalLoop=1;jettySize=auto;html=1;" edge="1" parent="WIyWlLk6GJQsqaUBKTNV-1" source="3qJD3kImKflB5u9U5FBh-39">
          <mxGeometry relative="1" as="geometry">
            <mxPoint x="190" y="1189.9999999999998" as="targetPoint" />
          </mxGeometry>
        </mxCell>
        <mxCell id="3qJD3kImKflB5u9U5FBh-48" value="No" style="edgeLabel;html=1;align=center;verticalAlign=middle;resizable=0;points=[];" vertex="1" connectable="0" parent="3qJD3kImKflB5u9U5FBh-46">
          <mxGeometry x="0.0374" y="-2" relative="1" as="geometry">
            <mxPoint as="offset" />
          </mxGeometry>
        </mxCell>
        <mxCell id="3qJD3kImKflB5u9U5FBh-39" value="Is G-force &amp;lt; 3.5 and&lt;div&gt;RPM &amp;gt;&amp;nbsp;&lt;span style=&quot;white-space: pre; font-family: Menlo, Monaco, Consolas, &amp;quot;Courier New&amp;quot;, monospace; font-size: 10pt; text-align: start; background-color: transparent; color: light-dark(rgb(0, 0, 0), rgb(255, 255, 255));&quot;&gt;21.1383&lt;/span&gt;&lt;/div&gt;" style="rhombus;whiteSpace=wrap;html=1;" vertex="1" parent="WIyWlLk6GJQsqaUBKTNV-1">
          <mxGeometry x="317.6" y="1140" width="142.4" height="100" as="geometry" />
        </mxCell>
        <mxCell id="3qJD3kImKflB5u9U5FBh-52" style="edgeStyle=orthogonalEdgeStyle;rounded=0;orthogonalLoop=1;jettySize=auto;html=1;exitX=0.5;exitY=1;exitDx=0;exitDy=0;" edge="1" parent="WIyWlLk6GJQsqaUBKTNV-1" source="3qJD3kImKflB5u9U5FBh-44" target="3qJD3kImKflB5u9U5FBh-24">
          <mxGeometry relative="1" as="geometry" />
        </mxCell>
        <mxCell id="3qJD3kImKflB5u9U5FBh-44" value="Display &quot;filename is viable&quot;" style="rounded=0;whiteSpace=wrap;html=1;" vertex="1" parent="WIyWlLk6GJQsqaUBKTNV-1">
          <mxGeometry x="197.6" y="1260" width="120" height="60" as="geometry" />
        </mxCell>
        <mxCell id="3qJD3kImKflB5u9U5FBh-53" style="edgeStyle=orthogonalEdgeStyle;rounded=0;orthogonalLoop=1;jettySize=auto;html=1;entryX=0;entryY=0.5;entryDx=0;entryDy=0;" edge="1" parent="WIyWlLk6GJQsqaUBKTNV-1" source="3qJD3kImKflB5u9U5FBh-49" target="3qJD3kImKflB5u9U5FBh-24">
          <mxGeometry relative="1" as="geometry">
            <Array as="points">
              <mxPoint x="130" y="1340" />
            </Array>
          </mxGeometry>
        </mxCell>
        <mxCell id="3qJD3kImKflB5u9U5FBh-49" value="Do nothing" style="rounded=0;whiteSpace=wrap;html=1;" vertex="1" parent="WIyWlLk6GJQsqaUBKTNV-1">
          <mxGeometry x="70" y="1160" width="120" height="60" as="geometry" />
        </mxCell>
      </root>
    </mxGraphModel>
  </diagram>
</mxfile>
